# File generated by ImageToStl.com - Free Image and 3D model conversion tools

o obj1
v 110.00001526 5.96E-05 39.99999237
v 110.00001526 5.96E-05 90
v 40.00002289 5.96E-05 39.99999237
v 40.00002289 5.96E-05 90
v 221.78083801 680.00006104 39.99999237
v 123.83562469 680.00006104 39.99999237
v 230.00001526 730.00006104 90
v 1560 5.96E-05 90
v 1490 5.96E-05 90
v 1490 5.96E-05 39.99999237
v 1560 5.96E-05 39.99999237
v 1378.21923828 680.00006104 39.99999237
v 1476.16442871 680.00006104 39.99999237
v 1470 730.00006104 90
v 130 730.00006104 90
v 1370 730.00006104 90
v 130 730.00006104 710
v 110.00001526 5.96E-05 710
v 40.00002289 5.96E-05 710
v 110.00001526 5.96E-05 760
v 40.00002289 5.96E-05 760
v 230.00001526 730.00006104 710
v 221.78083801 680.00006104 760
v 1560 5.96E-05 760
v 1490 5.96E-05 760
v 1490 5.96E-05 710
v 1560 5.96E-05 710
v 1370 730.00006104 710
v 1470 730.00006104 710
v 1476.16442871 680.00006104 760
v 123.83562469 680.00006104 760
v 1378.21923828 680.00006104 760
v 40.00002289 680.00006104 39.99999237
v 20.00004005 680.00006104 780
v 20.00004005 680.00006104 20.00001144
v 1580 680.00006104 20.00001144
v 1580 730.00006104 20.00001144
v 20.00004005 730.00006104 20.00001144
v 1560 680.00006104 760
v 1560 680.00006104 39.99999237
v 1580 680.00006104 780
v 1580 730.00006104 780
v 40.00002289 730.00006104 39.99999237
v 40.00002289 680.00006104 760
v 40.00002289 730.00006104 760
v 130 730.00006104 39.99999237
v 230.00001526 730.00006104 39.99999237
v 1370 730.00006104 39.99999237
v 1470 730.00006104 39.99999237
v 1560 730.00006104 39.99999237
v 130 730.00006104 760
v 230.00001526 730.00006104 760
v 1370 730.00006104 760
v 1470 730.00006104 760
v 1560 730.00006104 760
v 20.00004005 730.00006104 780
v 0 730.00006104 800
v 0 730.00006104 0
v 1600 730.00006104 0
v 0 750.00006104 0
v 1600 750.00006104 0
v 1600 730.00006104 800
v 1600 750.00006104 800
v 0 750.00006104 800
vn 0 -1 0
vn 0 0 -1
vn -0.99249 0.12236 0
vn 0.98676 -0.16221 0
vn 0.98676 -0.16221 -0
vn -0.98676 -0.16221 -0
vn 0.99249 0.12236 0
vn 0.99249 0.12236 -0
vn 0 0 1
vn -0.99249 0.12236 -0
vn -0.98676 -0.16221 -0
vn -0.99249 0.12236 0
vn 0.98676 -0.16221 0
vn 0.98676 -0.16221 0
vn -0.98676 -0.16221 -0
vn 0.99249 0.12236 0
vn 0.99249 0.12236 0
vn -0.99249 0.12236 0
vn -0.98676 -0.16221 0
vn -1 0 0
vn 1 0 0
vn -0.99249 0.12236 0
vn 0.98676 -0.16221 0
vn -0.98676 -0.16221 -0
vn 0.99249 0.12236 -0
vn 0.98676 -0.16221 0
vn -0.98676 -0.16221 -0
vn -0 -1 -0
vn 0 -1 0
vn 0 -1 0
vn 0 -1 0
vn -0 -1 -0
vn 0 1 0
f 1//1 2//1 3//1
f 2//1 4//1 3//1
f 5//2 1//2 3//2
f 6//2 5//2 3//2
f 4//3 6//3 3//3
f 7//4 2//4 1//4
f 5//5 7//5 1//5
f 8//1 9//1 10//1
f 11//1 8//1 10//1
f 9//6 12//6 10//6
f 13//2 11//2 10//2
f 12//2 13//2 10//2
f 14//7 8//7 11//7
f 13//8 14//8 11//8
f 7//9 15//9 4//9
f 2//9 7//9 4//9
f 15//10 6//10 4//10
f 8//9 14//9 9//9
f 14//9 16//9 9//9
f 16//11 12//11 9//11
f 17//2 18//2 19//2
f 18//1 20//1 19//1
f 20//1 21//1 19//1
f 21//12 17//12 19//12
f 17//2 22//2 18//2
f 23//13 20//13 18//13
f 22//14 23//14 18//14
f 24//1 25//1 26//1
f 27//1 24//1 26//1
f 28//2 27//2 26//2
f 25//15 28//15 26//15
f 28//2 29//2 27//2
f 30//16 24//16 27//16
f 29//17 30//17 27//17
f 20//9 31//9 21//9
f 31//18 17//18 21//18
f 23//9 31//9 20//9
f 32//19 28//19 25//19
f 24//9 32//9 25//9
f 30//9 32//9 24//9
f 33//1 34//1 35//1
f 6//1 33//1 35//1
f 36//1 12//1 35//1
f 12//1 5//1 35//1
f 5//1 6//1 35//1
f 37//2 36//2 35//2
f 38//2 37//2 35//2
f 34//20 38//20 35//20
f 39//1 40//1 36//1
f 41//1 39//1 36//1
f 40//1 13//1 36//1
f 13//1 12//1 36//1
f 42//21 41//21 36//21
f 37//21 42//21 36//21
f 6//9 43//9 33//9
f 44//1 34//1 33//1
f 45//21 44//21 33//21
f 43//21 45//21 33//21
f 46//9 43//9 6//9
f 15//22 46//22 6//22
f 12//9 47//9 5//9
f 47//23 7//23 5//23
f 48//9 47//9 12//9
f 16//24 48//24 12//24
f 40//9 49//9 13//9
f 49//25 14//25 13//25
f 50//9 49//9 40//9
f 39//20 50//20 40//20
f 51//2 31//2 44//2
f 45//2 51//2 44//2
f 31//1 34//1 44//1
f 23//1 34//1 31//1
f 51//22 17//22 31//22
f 32//1 34//1 23//1
f 52//2 53//2 23//2
f 53//2 32//2 23//2
f 22//26 52//26 23//26
f 41//1 34//1 32//1
f 30//1 41//1 32//1
f 53//27 28//27 32//27
f 54//2 55//2 30//2
f 55//2 39//2 30//2
f 39//1 41//1 30//1
f 29//25 54//25 30//25
f 55//20 50//20 39//20
f 41//9 56//9 34//9
f 56//20 38//20 34//20
f 42//9 56//9 41//9
f 22//28 48//28 16//28
f 28//29 22//29 16//29
f 14//30 28//30 16//30
f 48//31 7//31 47//31
f 52//32 28//32 53//32
f 38//1 57//1 58//1
f 37//1 38//1 58//1
f 59//1 37//1 58//1
f 60//2 61//2 58//2
f 61//2 59//2 58//2
f 57//20 60//20 58//20
f 42//1 37//1 59//1
f 62//1 42//1 59//1
f 61//21 63//21 59//21
f 63//21 62//21 59//21
f 56//1 57//1 38//1
f 46//1 15//1 43//1
f 15//1 17//1 43//1
f 17//1 45//1 43//1
f 22//1 7//1 48//1
f 50//1 14//1 49//1
f 55//1 14//1 50//1
f 7//1 22//1 15//1
f 22//1 17//1 15//1
f 29//1 28//1 14//1
f 55//1 29//1 14//1
f 51//1 45//1 17//1
f 28//1 52//1 22//1
f 55//1 54//1 29//1
f 42//1 62//1 56//1
f 62//1 57//1 56//1
f 64//20 60//20 57//20
f 62//9 64//9 57//9
f 63//9 64//9 62//9
f 64//33 61//33 60//33
f 64//33 63//33 61//33
# Vertices: 64, normals: 33, texture coordinates: 0, faces: 124

