# File generated by ImageToStl.com - Free Image and 3D model conversion tools

o obj1
v 0 0 450
v 0 400 450
v 0 0 0
v 0 400 0
v 273 0 430
v 293 0 430
v 1500 0 0
v 89.99997711 400 0
v 110.00001526 400 0
v 415 400 0
v 435 400 0
v 740 400 0
v 850 20.00001144 0
v 760 400 0
v 850 400 0
v 850 0 400
v 1500 0 400
v 1480 20.00001144 0
v 1500 500 0
v 850 20.00001144 400
v 850 0 450
v 577 0 450
v 577 0 430
v 557 0 430
v 1480 20.00001144 400
v 1500 500 400
v 1480 480 400
v 273 0 450
v 273 400 430
v 293 0 450
v 293 400 450
v 293 400 430
v 557 0 450
v 557 400 430
v 577 400 450
v 577 400 430
v 273 400 450
v 557 400 450
v 850 400 450
v 1480 480 0
v 89.99997711 400 400
v 110.00001526 480 0
v 89.99997711 480 0
v 89.99997711 480 400
v 110.00001526 400 400
v 415 400 400
v 435 480 0
v 415 480 0
v 415 480 400
v 435 400 400
v 740 400 400
v 740 480 0
v 760 480 0
v 740 480 400
v 760 400 400
v 110.00001526 480 400
v 435 480 400
v 760 480 400
v 0 500 0
v 0 480 0
v 0 480 400
v 0 500 400
vn -1 0 0
vn -0 -1 0
vn 0 0 -1
vn 1 0 0
vn 0 0 1
vn -0 1 0
f 1//1 2//1 3//1
f 2//1 4//1 3//1
f 5//2 1//2 3//2
f 6//2 5//2 3//2
f 7//2 6//2 3//2
f 4//3 8//3 3//3
f 9//3 10//3 3//3
f 8//3 9//3 3//3
f 11//3 12//3 3//3
f 10//3 11//3 3//3
f 13//3 7//3 3//3
f 12//3 14//3 3//3
f 14//3 15//3 3//3
f 15//3 13//3 3//3
f 16//2 6//2 7//2
f 17//2 16//2 7//2
f 13//3 18//3 7//3
f 18//3 19//3 7//3
f 19//4 17//4 7//4
f 20//4 21//4 16//4
f 21//2 22//2 16//2
f 22//2 23//2 16//2
f 23//2 24//2 16//2
f 24//2 6//2 16//2
f 25//5 20//5 16//5
f 17//5 25//5 16//5
f 19//4 26//4 17//4
f 27//5 25//5 17//5
f 26//5 27//5 17//5
f 28//2 1//2 5//2
f 29//4 28//4 5//4
f 6//5 29//5 5//5
f 24//2 30//2 6//2
f 31//1 32//1 6//1
f 30//1 31//1 6//1
f 32//5 29//5 6//5
f 33//2 30//2 24//2
f 34//4 33//4 24//4
f 23//5 34//5 24//5
f 35//1 36//1 23//1
f 22//1 35//1 23//1
f 36//5 34//5 23//5
f 37//5 2//5 1//5
f 28//5 37//5 1//5
f 29//4 37//4 28//4
f 33//5 38//5 30//5
f 38//5 31//5 30//5
f 34//4 38//4 33//4
f 21//5 39//5 22//5
f 39//5 35//5 22//5
f 20//4 39//4 21//4
f 15//4 20//4 13//4
f 20//6 25//6 13//6
f 25//6 18//6 13//6
f 40//3 19//3 18//3
f 25//1 27//1 18//1
f 27//1 40//1 18//1
f 15//4 39//4 20//4
f 41//6 8//6 4//6
f 2//6 41//6 4//6
f 42//3 9//3 8//3
f 43//3 42//3 8//3
f 41//1 44//1 8//1
f 44//1 43//1 8//1
f 45//6 10//6 9//6
f 42//4 45//4 9//4
f 45//6 29//6 10//6
f 29//6 32//6 10//6
f 32//6 46//6 10//6
f 47//3 11//3 10//3
f 48//3 47//3 10//3
f 46//1 49//1 10//1
f 49//1 48//1 10//1
f 36//6 12//6 11//6
f 34//6 36//6 11//6
f 50//6 34//6 11//6
f 47//4 50//4 11//4
f 36//6 51//6 12//6
f 52//3 53//3 12//3
f 53//3 14//3 12//3
f 51//1 54//1 12//1
f 54//1 52//1 12//1
f 55//6 39//6 14//6
f 39//6 15//6 14//6
f 53//4 55//4 14//4
f 2//6 45//6 41//6
f 45//5 44//5 41//5
f 2//6 29//6 45//6
f 42//4 56//4 45//4
f 56//5 44//5 45//5
f 32//6 50//6 46//6
f 50//5 49//5 46//5
f 32//6 31//6 50//6
f 38//6 34//6 50//6
f 31//6 38//6 50//6
f 47//4 57//4 50//4
f 57//5 49//5 50//5
f 36//6 55//6 51//6
f 55//5 54//5 51//5
f 36//6 35//6 55//6
f 35//6 39//6 55//6
f 53//4 58//4 55//4
f 58//5 54//5 55//5
f 2//6 37//6 29//6
f 59//3 43//3 60//3
f 61//1 62//1 60//1
f 62//1 59//1 60//1
f 43//2 61//2 60//2
f 59//3 42//3 43//3
f 44//2 61//2 43//2
f 59//3 48//3 42//3
f 48//2 56//2 42//2
f 59//3 47//3 48//3
f 49//2 56//2 48//2
f 59//3 52//3 47//3
f 52//2 57//2 47//2
f 59//3 53//3 52//3
f 54//2 57//2 52//2
f 59//3 19//3 53//3
f 19//3 40//3 53//3
f 40//2 58//2 53//2
f 27//2 58//2 40//2
f 44//5 62//5 61//5
f 56//5 62//5 44//5
f 49//5 62//5 56//5
f 57//5 62//5 49//5
f 54//5 62//5 57//5
f 58//5 62//5 54//5
f 27//5 26//5 58//5
f 26//5 62//5 58//5
f 62//6 26//6 59//6
f 26//6 19//6 59//6
# Vertices: 62, normals: 6, texture coordinates: 0, faces: 132

